# xmcd
#
# Track frame offsets:
#	150
#	16250
#	32875
#	48975
#	84400
#	102750
#	116512
#	133650
#	150437
#	170375
#	193700
#	212312
#	244512
#	262125
#	283250
#	303125
#
# Disc length: 4223
#
# Revision: 2
# Processed by: cddbd v1.5.1PL0 Copyright (c) Steve Scherf et al.
# Submitted via: EasyCDDAExtractor 7.0.5.1
# Normalized: r1:DSETVAR1
#
DISCID=cd107d10
DTITLE=Various Artist - The Very Best of Christmas Hits vol 1
DYEAR=1995
DGENRE=Gospel
TTITLE0=Sal Solo - San Samiano
TTITLE1=Shakin Stevens - Merry Christmas Everyone
TTITLE2=Jordy - It's Christmas C'est Noel
TTITLE3=Boney M. - Christmas Medley 1
TTITLE4=Cliff Richard - Mistletone and Wine
TTITLE5=Joy - Feliz Navidad
TTITLE6=Enya - Oiche Chiun (Silent Night)
TTITLE7=Band Aid - Do They Know It's Christmas
TTITLE8=Wham - Last Christmas
TTITLE9=Boney M. - Christmas Medley 2
TTITLE10=Jordy - Love, Love Dance (Christmas Dance)
TTITLE11=Joy - The Christmas Mix
TTITLE12=Modern Talking - It's Christmas
TTITLE13=Joy - Pop Christmas Medley
TTITLE14=ABBA - Happy New Year
TTITLE15=Compilation Christmas - San Damiano (Special Hymn Longplay Version)
EXTD=
EXTT0=
EXTT1=
EXTT2=
EXTT3=
EXTT4=
EXTT5=
EXTT6=
EXTT7=
EXTT8=
EXTT9=
EXTT10=
EXTT11=
EXTT12=
EXTT13=
EXTT14=
EXTT15=
PLAYORDER=
